<svg xmlns="http://www.w3.org/2000/svg" width="28" height="12" viewBox="0 0 28 12" fill="none">
  <g clip-path="url(#clip0_8988_9847)">
    <path d="M1.16667 2.81889H26.8333C27.4773 2.81889 28 2.24871 28 1.54616C28 0.843619 27.4773 0.273438 26.8333 0.273438H1.16667C0.522667 0.273438 0 0.843619 0 1.54616C0 2.24871 0.522667 2.81889 1.16667 2.81889Z" fill="black"/>
    <path d="M26.8333 8.54616H1.16667C0.522667 8.54616 0 9.11635 0 9.81889C0 10.5214 0.522667 11.0916 1.16667 11.0916H26.8333C27.4773 11.0916 28 10.5214 28 9.81889C28 9.11635 27.4773 8.54616 26.8333 8.54616Z" fill="black"/>
  </g>
  <defs>
    <clipPath id="clip0_8988_9847">
      <rect width="28" height="12" fill="white"/>
    </clipPath>
  </defs>
</svg>