<svg xmlns="http://www.w3.org/2000/svg" width="73" height="32" viewBox="0 0 73 32" fill="none">
  <g clip-path="url(#clip0_8988_9834)">
    <path d="M29.9056 17.7441C28.9052 17.7441 28.0731 21.7153 27.2556 21.6767C26.5678 21.6445 27.143 18.9375 26.0882 18.9306C25.4408 18.9262 25.2472 20.012 24.9524 20.9434C24.9353 20.9966 24.4575 22.8714 23.7318 22.8714C23.2698 22.8714 22.8655 22.5019 22.8655 21.4085C22.8655 20.8972 22.8402 20.136 22.2289 20.0094C21.1703 19.7905 21.412 20.8782 20.4844 20.7029C17.973 20.229 16.0721 25.3866 17.5996 26.0776C19.4308 26.9053 20.7672 23.6561 21.314 23.7453C21.7309 23.8136 21.4601 25.2133 22.7744 25.124C23.8456 25.0513 24.691 22.8385 25.108 22.8645C25.4775 22.8879 25.1561 24.1964 26.0799 24.2451C27.162 24.3021 27.608 22.5063 28.1016 22.4975C28.225 22.4956 28.2788 22.5886 28.268 23.0302C28.2541 23.6307 28.1737 31.2448 28.1617 31.4916C28.1389 31.9611 28.3661 31.9997 28.468 31.9997C28.5376 31.9997 29.5772 31.9782 29.7772 31.9699C29.9771 31.9617 30.0119 31.7744 30.01 31.6599C30.0094 31.6144 30.1543 20.577 30.1644 18.1877C30.1663 17.7441 29.9815 17.7441 29.9056 17.7441ZM20.99 22.2887C20.7394 23.1884 19.7219 24.6685 19.2461 24.7141C19.1044 24.7273 18.8987 24.6527 18.9063 24.3281C18.924 23.5674 20.1111 21.8444 20.6014 21.7135C20.9362 21.6236 21.0855 21.9495 20.9906 22.2893L20.99 22.2887Z" fill="black"/>
    <path d="M61.1806 12.8362C59.2292 14.0688 59.6056 9.50977 58.4173 9.50977C57.122 9.50977 56.7437 12.2123 56.2824 12.2579C55.7173 12.3135 56.493 10.2767 55.373 10.3222C54.1385 10.3728 53.4476 14.8478 52.5522 14.5016C51.6328 14.146 52.2922 11.7814 51.257 11.6086C50.7235 11.52 50.6134 11.9465 50.2952 12.1528C49.8193 12.4609 48.9644 11.9244 47.6223 13.4879C46.1056 15.2559 45.6411 18.1109 46.7985 18.3052C48.3563 18.5671 49.7757 15.9082 50.1357 15.566C50.6375 15.0888 50.3578 16.9434 51.7094 16.9707C53.1375 16.9992 53.5672 14.6421 53.9829 14.6649C54.3391 14.6845 53.9259 15.9013 54.6062 15.988C56.0805 16.1759 56.8879 12.3129 57.4941 12.3977C58.1009 12.4819 57.8725 14.787 59.3329 14.9319C60.5725 15.0553 61.4223 13.3626 61.5375 13.1127C61.6571 12.8539 61.4527 12.6634 61.18 12.8355L61.1806 12.8362ZM50.0762 14.0517C49.7933 14.8547 48.9777 16.1436 48.4766 16.2328C48.3039 16.2639 48.095 16.0936 48.1083 15.7988C48.14 15.1084 49.296 13.6436 49.7649 13.5348C50.0857 13.4601 50.1913 13.724 50.0762 14.0517Z" fill="black"/>
    <path d="M21.7027 28.8716C22.05 29.0399 22.5334 29.3538 22.2867 29.9163C22.1101 30.3175 21.9418 30.6313 21.9051 30.694C21.69 31.061 21.1699 31.2812 20.5485 30.9876C19.5537 30.5174 14.2132 27.9674 14.043 27.889C13.8545 27.8017 13.5501 27.8655 13.5488 28.3889C13.5482 28.9197 13.5488 29.6474 13.5488 29.8113C13.5488 30.0036 13.5754 30.4776 13.1818 30.756C12.7648 31.0515 12.0815 31.4577 11.9599 31.5191C11.7885 31.6058 11.3487 31.9481 11.343 31.2356C11.3316 29.8189 11.331 27.1898 11.3316 27.0436C11.3322 26.8974 11.3639 26.6171 10.9431 26.4253C10.5635 26.2526 8.14688 25.1111 7.99629 25.0415C7.80269 24.9523 7.65651 24.6049 8.05197 24.3663C8.52211 24.0822 10.8723 22.7073 11.0349 22.5921C11.3082 22.3978 11.3082 22.2118 11.3107 21.6454C11.3133 21.0076 11.2747 12.7216 11.2791 12.5868C11.2867 12.371 11.2576 12.1926 11.6246 11.956C12.041 11.6876 12.489 11.3965 12.6339 11.3016C12.8642 11.1523 13.5697 10.8562 13.559 11.656C13.5514 12.1913 13.5564 19.7725 13.559 19.9743C13.5628 20.2509 13.6918 20.6742 14.1386 20.3439C19.4879 16.3929 20.1979 13.0525 19.1324 10.8429C16.9556 6.33065 5.64496 13.5341 0.751789 17.5686C-0.0176517 18.2007 0.00133125 17.9204 6.572e-05 17.6141C-0.00119981 17.2528 0.0158849 15.9126 0.044992 15.6652C0.0873875 15.3089 0.175974 14.1542 1.23332 13.3873C2.25714 12.6444 16.2804 3.6104 20.3555 9.41599C22.343 12.247 21.1293 16.7169 14.0689 21.908C13.6374 22.2251 13.5583 22.3295 13.5583 22.9021C13.5583 23.4748 13.545 24.3398 13.5583 24.5037C13.5716 24.6675 13.588 25.0137 13.9285 25.1871C14.2689 25.3604 21.4134 28.7311 21.7014 28.871L21.7027 28.8716Z" fill="black"/>
    <path d="M35.1394 17.2988C34.6199 16.7167 33.579 16.7262 32.7779 17.2197C31.7212 17.8709 31.439 18.8883 31.9585 19.4705C32.478 20.0526 33.7194 19.9299 34.4801 19.4243C35.3507 18.8459 35.6589 17.8816 35.1394 17.2988Z" fill="black"/>
    <path d="M43.0541 1.76904C45.5408 4.2172 41.3044 8.85792 40.2819 10.0519C39.8232 10.5879 39.3967 11.3852 40.118 12.1496C40.8495 12.9253 41.6107 13.6442 42.2371 14.2244C43.0116 14.9413 42.7813 16.2821 42.2909 17.0085C41.9651 17.4913 41.2355 18.3437 40.3946 19.4181C39.5517 20.4957 38.7873 21.479 38.7019 21.5866C38.1128 22.3339 38.2602 23.1679 38.5754 23.6564C39.4795 25.0598 39.5669 25.039 40.1434 24.0373C41.1032 22.37 42.3694 20.8209 43.3325 19.7225C44.2013 18.7328 44.6714 18.0254 44.7942 17.8508C45.6667 16.6061 45.749 15.2767 44.8688 14.5104C43.7027 13.4954 42.3542 12.6083 41.2399 11.7591C40.5964 11.2687 41.0425 10.6644 41.7309 10.1494C44.1803 8.31623 47.5992 5.24734 46.0312 1.55326C44.5145 -2.01996 37.3731 0.736365 37.0839 8.13088C36.9808 10.7676 37.3307 18.0602 37.1352 19.8851C37.0212 20.9475 37.425 20.8285 37.8129 20.6678C38.1679 20.521 39.5308 19.8547 39.4606 18.1178C39.3903 16.3878 39.2315 8.84205 39.1809 8.06061C38.9164 3.9913 41.4393 0.179531 43.0541 1.76904Z" fill="black"/>
    <path d="M57.6599 22.1055H46.6504V32H57.6599V22.1055Z" fill="black"/>
    <path d="M72.6164 22.1055H57.6602V32.0001H72.6164V22.1055Z" fill="#FF0000"/>
    <path d="M51.7425 29.9855H50.9396C50.9248 29.9855 50.9174 29.9782 50.9174 29.9634L50.6498 28.0234C50.5827 27.5994 50.4713 27.4216 50.1144 27.4216H49.5348V29.9634C49.5348 29.9855 49.5127 29.9855 49.4905 29.9855H48.7103C48.6882 29.9855 48.666 29.9634 48.666 29.9634V24.1654C48.666 24.1432 48.6882 24.1211 48.7103 24.1211H50.115C51.23 24.1211 51.6982 24.5893 51.6982 25.6821V25.8156C51.6982 26.4845 51.4755 26.7743 51.0737 26.9976C51.3192 27.109 51.3856 27.5108 51.4748 27.979L51.7868 29.9413C51.7868 29.9855 51.7647 29.9855 51.7425 29.9855ZM49.5348 26.6408H50.1815C50.6498 26.6408 50.8725 26.3952 50.8725 25.9048V25.6372C50.8725 25.1468 50.6498 24.9013 50.1815 24.9013H49.5348V26.6408Z" fill="white"/>
    <path d="M55.6459 24.1641V24.8778C55.6459 24.8999 55.6238 24.8999 55.6238 24.8999H53.9065V26.6395H55.3561C55.3783 26.6395 55.3783 26.6616 55.3783 26.6616V27.3753C55.3783 27.3975 55.3561 27.3975 55.3561 27.3975H53.9065V29.2034H55.6238C55.6459 29.2034 55.6459 29.2256 55.6459 29.2477V29.9614C55.6459 29.9836 55.6238 29.9836 55.6238 29.9836H53.1042C53.082 29.9836 53.082 29.9614 53.082 29.9614V24.1634C53.082 24.1413 53.1042 24.1191 53.1042 24.1191H55.6238C55.6238 24.1413 55.6459 24.1413 55.6459 24.1634V24.1641Z" fill="white"/>
    <path d="M63.8445 24.1654V29.9634C63.8445 29.9855 63.8223 29.9855 63.8002 29.9855H63.0643C63.0421 29.9855 63.0421 29.9634 63.0421 29.9634V26.1725H63.02L62.1277 28.6251C62.1277 28.6473 62.1056 28.6473 62.1056 28.6473H61.4368C61.422 28.6473 61.4072 28.6399 61.3925 28.6251L60.5003 26.1725H60.4781V29.9634C60.4781 29.9855 60.456 29.9855 60.456 29.9855H59.7201C59.6979 29.9855 59.6758 29.9634 59.6758 29.9634V24.1654C59.6758 24.1432 59.6979 24.1211 59.7201 24.1211H60.5231C60.5379 24.1211 60.5526 24.1285 60.5674 24.1432L61.7715 27.5773H61.7937L62.9978 24.1432C62.9978 24.1211 63.02 24.1211 63.0421 24.1211H63.8451C63.8229 24.1432 63.8445 24.1432 63.8445 24.1654Z" fill="white"/>
    <path d="M66.1426 24.1654V29.9634C66.1426 29.9855 66.1202 29.9855 66.0984 29.9855H65.3176C65.2958 29.9855 65.2734 29.9634 65.2734 29.9634V24.1654C65.2734 24.1432 65.2958 24.1211 65.3176 24.1211H66.0984C66.1202 24.1432 66.1426 24.1432 66.1426 24.1654Z" fill="white"/>
    <path d="M70.6009 29.9628C70.6009 29.9849 70.5791 29.9849 70.5791 29.9849H69.7989C69.7765 29.9849 69.7765 29.9628 69.7765 29.9628L69.6652 28.1119C69.6428 27.5766 69.4425 27.3981 69.0636 27.3981C68.6847 27.3981 68.4837 27.5544 68.4613 28.1119L68.3724 29.9628C68.3724 29.9849 68.35 29.9849 68.3282 29.9849H67.5481C67.5257 29.9849 67.5039 29.9628 67.5039 29.9628L67.6153 28.1569C67.637 27.5551 67.7714 27.2425 68.1279 27.0198C67.7932 26.8192 67.7042 26.5293 67.6601 25.9491L67.5487 24.1654C67.5487 24.1432 67.5705 24.1211 67.5705 24.1211H68.3506C68.373 24.1211 68.373 24.1432 68.373 24.1654L68.4844 25.9713C68.5068 26.4845 68.6847 26.6401 69.0418 26.6401C69.3989 26.6401 69.5775 26.4617 69.5993 25.9713L69.6889 24.1654C69.6889 24.1432 69.7106 24.1211 69.733 24.1211H70.5132C70.5349 24.1211 70.5573 24.1432 70.5573 24.1654L70.446 25.9491C70.4018 26.5288 70.3122 26.8186 69.9775 27.0198C70.357 27.2425 70.4684 27.5551 70.4908 28.1569L70.6021 29.9628H70.6009Z" fill="white"/>
  </g>
  <defs>
    <clipPath id="clip0_8988_9834">
      <rect width="72.96" height="32" fill="white"/>
    </clipPath>
  </defs>
</svg>