<svg version="1.1" id="Layer_1" xmlns="http://www.w3.org/2000/svg" xmlns:xlink="http://www.w3.org/1999/xlink" x="0px" y="0px"
	 width="100%" viewBox="0 0 80 128" enable-background="new 0 0 80 128" xml:space="preserve">
<path fill="#000000" opacity="1.000000" stroke="none" 
	d="
M21.660675,11.565524 
	C34.713779,2.993427 47.965511,2.356705 61.050640,10.010553 
	C73.166779,17.097610 78.274689,28.458218 78.262848,42.285583 
	C78.248734,58.769547 78.296295,75.253860 78.203415,91.737381 
	C78.102394,109.665985 65.056450,124.968040 47.983006,127.359863 
	C29.720112,129.918304 13.517587,119.320274 8.391264,101.381546 
	C7.339159,97.699875 6.849640,93.896950 6.845252,90.054939 
	C6.827185,74.237022 6.762108,58.418797 6.836522,42.601257 
	C6.895285,30.110716 11.076278,19.483114 21.660675,11.565524 
M64.946136,17.551558 
	C54.712448,8.442446 43.150337,5.454559 30.339428,11.053533 
	C16.657129,17.033346 10.449756,28.173206 10.358568,42.836170 
	C10.257038,59.161995 10.227135,75.490173 10.385458,91.815193 
	C10.558847,109.693756 25.553108,124.729271 42.746067,124.538155 
	C60.534466,124.340416 74.609993,109.819290 74.654816,91.545509 
	C74.695267,75.052505 74.571793,58.558571 74.704185,42.066517 
	C74.778770,32.775082 71.843002,24.783564 64.946136,17.551558 
z"/>
<path fill="#000000" opacity="1.000000" stroke="none" 
	d="
M31.424006,60.566227 
	C34.948727,64.547256 38.222649,68.276329 42.220348,72.829803 
	C47.512871,67.169052 51.668518,62.647038 55.924911,58.221924 
	C57.100784,56.999443 58.437244,54.883652 60.413143,56.926029 
	C62.305252,58.881798 60.313251,60.278797 59.103451,61.507347 
	C54.543587,66.137894 49.846081,70.633316 45.306595,75.283287 
	C43.367912,77.269157 41.799179,77.278236 39.866440,75.287117 
	C35.339970,70.623932 30.660164,66.109688 26.127119,61.452713 
	C24.977848,60.272022 22.725307,59.039028 24.889729,57.001850 
	C26.706955,55.291454 27.851046,57.170399 29.045565,58.201023 
	C29.800533,58.852409 30.467028,59.606339 31.424006,60.566227 
z"/>
</svg>